<svg width="376" height="64" viewBox="0 0 376 64" fill="none" xmlns="http://www.w3.org/2000/svg">
<path d="M29.2573 63.3586C23.2093 63.3586 18.0573 62.0426 13.8013 59.4106C9.54525 56.7506 6.28325 53.0546 4.01525 48.3226C1.77525 43.5906 0.655254 38.1026 0.655254 31.8586C0.655254 25.6146 1.77525 20.1266 4.01525 15.3946C6.28325 10.6626 9.54525 6.98063 13.8013 4.34863C18.0573 1.68863 23.2093 0.358632 29.2573 0.358632C36.2293 0.358632 41.9973 2.12263 46.5613 5.65063C51.1533 9.17863 54.3453 13.9246 56.1373 19.8886L47.2333 22.2826C46.0573 18.0546 43.9573 14.7366 40.9333 12.3286C37.9373 9.92063 34.0453 8.71663 29.2573 8.71663C24.9733 8.71663 21.4033 9.68263 18.5473 11.6146C15.6913 13.5466 13.5353 16.2486 12.0793 19.7206C10.6513 23.1926 9.93725 27.2386 9.93725 31.8586C9.90925 36.4786 10.6093 40.5246 12.0373 43.9966C13.4933 47.4686 15.6493 50.1706 18.5053 52.1026C21.3893 54.0346 24.9733 55.0006 29.2573 55.0006C34.0453 55.0006 37.9373 53.7966 40.9333 51.3886C43.9573 48.9526 46.0573 45.6346 47.2333 41.4346L56.1373 43.8286C54.3453 49.7926 51.1533 54.5386 46.5613 58.0666C41.9973 61.5946 36.2293 63.3586 29.2573 63.3586ZM95.5306 62.0986V39.7966C95.5306 38.0326 95.3766 36.2266 95.0686 34.3786C94.7886 32.5026 94.2286 30.7666 93.3886 29.1706C92.5766 27.5746 91.4146 26.2866 89.9026 25.3066C88.4186 24.3266 86.4726 23.8366 84.0646 23.8366C82.4966 23.8366 81.0126 24.1026 79.6126 24.6346C78.2126 25.1386 76.9806 25.9646 75.9166 27.1126C74.8806 28.2606 74.0546 29.7726 73.4386 31.6486C72.8506 33.5246 72.5566 35.8066 72.5566 38.4946L67.0966 36.4366C67.0966 32.3206 67.8666 28.6946 69.4066 25.5586C70.9466 22.3946 73.1586 19.9306 76.0426 18.1666C78.9266 16.4026 82.4126 15.5206 86.5006 15.5206C89.6366 15.5206 92.2686 16.0246 94.3966 17.0326C96.5246 18.0406 98.2466 19.3706 99.5626 21.0226C100.907 22.6466 101.929 24.4246 102.629 26.3566C103.329 28.2886 103.805 30.1786 104.057 32.0266C104.309 33.8746 104.435 35.4986 104.435 36.8986V62.0986H95.5306ZM63.6526 62.0986V1.61863H71.5066V34.2526H72.5566V62.0986H63.6526ZM126.504 63.3586C123.144 63.3586 120.33 62.7426 118.062 61.5106C115.794 60.2506 114.072 58.5986 112.896 56.5546C111.748 54.4826 111.174 52.2146 111.174 49.7506C111.174 47.4546 111.58 45.4386 112.392 43.7026C113.204 41.9666 114.408 40.4966 116.004 39.2926C117.6 38.0606 119.56 37.0666 121.884 36.3106C123.9 35.7226 126.182 35.2046 128.73 34.7566C131.278 34.3086 133.952 33.8886 136.752 33.4966C139.58 33.1046 142.38 32.7126 145.152 32.3206L141.96 34.0846C142.016 30.5286 141.26 27.8966 139.692 26.1886C138.152 24.4526 135.492 23.5846 131.712 23.5846C129.332 23.5846 127.148 24.1446 125.16 25.2646C123.172 26.3566 121.786 28.1766 121.002 30.7246L112.812 28.2046C113.932 24.3126 116.06 21.2186 119.196 18.9226C122.36 16.6266 126.56 15.4786 131.796 15.4786C135.856 15.4786 139.384 16.1786 142.38 17.5786C145.404 18.9506 147.616 21.1346 149.016 24.1306C149.744 25.6146 150.192 27.1826 150.36 28.8346C150.528 30.4866 150.612 32.2646 150.612 34.1686V62.0986H142.842V51.7246L144.354 53.0686C142.478 56.5406 140.084 59.1306 137.172 60.8386C134.288 62.5186 130.732 63.3586 126.504 63.3586ZM128.058 56.1766C130.55 56.1766 132.692 55.7426 134.484 54.8746C136.276 53.9786 137.718 52.8446 138.81 51.4726C139.902 50.1006 140.616 48.6726 140.952 47.1886C141.428 45.8446 141.694 44.3326 141.75 42.6526C141.834 40.9726 141.876 39.6286 141.876 38.6206L144.732 39.6706C141.96 40.0906 139.44 40.4686 137.172 40.8046C134.904 41.1406 132.846 41.4766 130.998 41.8126C129.178 42.1206 127.554 42.4986 126.126 42.9466C124.922 43.3666 123.844 43.8706 122.892 44.4586C121.968 45.0466 121.226 45.7606 120.666 46.6006C120.134 47.4406 119.868 48.4626 119.868 49.6666C119.868 50.8426 120.162 51.9346 120.75 52.9426C121.338 53.9226 122.234 54.7066 123.438 55.2946C124.642 55.8826 126.182 56.1766 128.058 56.1766ZM191.675 62.0986V39.7966C191.675 38.0326 191.521 36.2266 191.213 34.3786C190.933 32.5026 190.373 30.7666 189.533 29.1706C188.721 27.5746 187.559 26.2866 186.047 25.3066C184.563 24.3266 182.617 23.8366 180.209 23.8366C178.641 23.8366 177.157 24.1026 175.757 24.6346C174.357 25.1386 173.125 25.9646 172.061 27.1126C171.025 28.2606 170.199 29.7726 169.583 31.6486C168.995 33.5246 168.701 35.8066 168.701 38.4946L163.241 36.4366C163.241 32.3206 164.011 28.6946 165.551 25.5586C167.091 22.3946 169.303 19.9306 172.187 18.1666C175.071 16.4026 178.557 15.5206 182.645 15.5206C185.781 15.5206 188.413 16.0246 190.541 17.0326C192.669 18.0406 194.391 19.3706 195.707 21.0226C197.051 22.6466 198.073 24.4246 198.773 26.3566C199.473 28.2886 199.949 30.1786 200.201 32.0266C200.453 33.8746 200.579 35.4986 200.579 36.8986V62.0986H191.675ZM159.797 62.0986V16.7386H167.651V29.8426H168.701V62.0986H159.797ZM241.674 62.0986V39.7966C241.674 38.0326 241.52 36.2266 241.212 34.3786C240.932 32.5026 240.372 30.7666 239.532 29.1706C238.72 27.5746 237.558 26.2866 236.046 25.3066C234.562 24.3266 232.616 23.8366 230.208 23.8366C228.64 23.8366 227.156 24.1026 225.756 24.6346C224.356 25.1386 223.124 25.9646 222.06 27.1126C221.024 28.2606 220.198 29.7726 219.582 31.6486C218.994 33.5246 218.7 35.8066 218.7 38.4946L213.24 36.4366C213.24 32.3206 214.01 28.6946 215.55 25.5586C217.09 22.3946 219.302 19.9306 222.186 18.1666C225.07 16.4026 228.556 15.5206 232.644 15.5206C235.78 15.5206 238.412 16.0246 240.54 17.0326C242.668 18.0406 244.39 19.3706 245.706 21.0226C247.05 22.6466 248.072 24.4246 248.772 26.3566C249.472 28.2886 249.948 30.1786 250.2 32.0266C250.452 33.8746 250.578 35.4986 250.578 36.8986V62.0986H241.674ZM209.796 62.0986V16.7386H217.65V29.8426H218.7V62.0986H209.796ZM279.382 63.3586C274.874 63.3586 270.912 62.3786 267.496 60.4186C264.108 58.4306 261.462 55.6726 259.558 52.1446C257.682 48.5886 256.744 44.4726 256.744 39.7966C256.744 34.8406 257.668 30.5426 259.516 26.9026C261.392 23.2626 263.996 20.4486 267.328 18.4606C270.66 16.4726 274.538 15.4786 278.962 15.4786C283.582 15.4786 287.516 16.5566 290.764 18.7126C294.012 20.8406 296.434 23.8786 298.03 27.8266C299.654 31.7746 300.298 36.4646 299.962 41.8966H291.184V38.7046C291.128 33.4406 290.12 29.5486 288.16 27.0286C286.228 24.5086 283.274 23.2486 279.298 23.2486C274.902 23.2486 271.598 24.6346 269.386 27.4066C267.174 30.1786 266.068 34.1826 266.068 39.4186C266.068 44.4026 267.174 48.2666 269.386 51.0106C271.598 53.7266 274.79 55.0846 278.962 55.0846C281.706 55.0846 284.072 54.4686 286.06 53.2366C288.076 51.9766 289.644 50.1846 290.764 47.8606L299.374 50.5906C297.61 54.6506 294.936 57.8006 291.352 60.0406C287.768 62.2526 283.778 63.3586 279.382 63.3586ZM263.212 41.8966V35.0506H295.594V41.8966H263.212ZM308.545 62.0986V0.358632H317.323V62.0986H308.545ZM323.215 62.0986L343.837 31.4806L323.761 1.61863H334.513L349.255 24.0466L363.913 1.61863H374.707L354.631 31.4806L375.211 62.0986H364.459L349.255 38.9566L334.009 62.0986H323.215Z" fill="black"/>
</svg>
