<svg width="182" height="100" viewBox="0 0 182 100" fill="none" xmlns="http://www.w3.org/2000/svg">
<path fill-rule="evenodd" clip-rule="evenodd" d="M90.5227 0.929688C83.6684 0.929688 78.1118 6.48624 78.1118 13.3406V21.4554H102.934V13.3406C102.934 6.48623 97.3771 0.929688 90.5227 0.929688ZM90.5227 6.18045C86.5682 6.18045 83.3625 9.38615 83.3625 13.3406V20.5007H97.6828V13.3406C97.6828 9.38615 94.4771 6.18045 90.5227 6.18045Z" fill="white"/>
<rect x="70.4741" y="19.6465" width="41.0514" height="27.6858" rx="1.90937" fill="white"/>
<path d="M80.9756 27.1363C80.9756 26.6091 81.403 26.1816 81.9303 26.1816H100.069C100.597 26.1816 101.024 26.6091 101.024 27.1363V33.3418H80.9756V27.1363Z" fill="url(#paint0_linear_430_141)"/>
<path d="M74.7705 39.023C74.7705 38.4958 75.1979 38.0684 75.7252 38.0684H106.275C106.802 38.0684 107.23 38.4958 107.23 39.023V47.6152H74.7705V39.023Z" fill="url(#paint1_linear_430_141)"/>
<path d="M15.3558 94.6727C12.4689 94.6727 10.0096 94.0446 7.97804 92.7882C5.94647 91.5185 4.38938 89.7542 3.30677 87.4954C2.23752 85.2366 1.7029 82.617 1.7029 79.6365C1.7029 76.6559 2.23752 74.0363 3.30677 71.7775C4.38938 69.5187 5.94647 67.7612 7.97804 66.5048C10.0096 65.2351 12.4689 64.6002 15.3558 64.6002C18.6839 64.6002 21.4372 65.4422 23.6158 67.1263C25.8077 68.8104 27.3314 71.0758 28.1868 73.9227L23.9365 75.0654C23.3752 73.0472 22.3728 71.4634 20.9293 70.314C19.4992 69.1645 17.6414 68.5898 15.3558 68.5898C13.3109 68.5898 11.6068 69.0509 10.2435 69.9732C8.88022 70.8954 7.85107 72.1852 7.15606 73.8425C6.47441 75.4998 6.13359 77.4311 6.13359 79.6365C6.12022 81.8418 6.45436 83.7731 7.13601 85.4304C7.83102 87.0878 8.86017 88.3776 10.2235 89.2998C11.6001 90.222 13.3109 90.6831 15.3558 90.6831C17.6414 90.6831 19.4992 90.1084 20.9293 88.959C22.3728 87.7962 23.3752 86.2123 23.9365 84.2075L28.1868 85.3503C27.3314 88.1971 25.8077 90.4626 23.6158 92.1466C21.4372 93.8307 18.6839 94.6727 15.3558 94.6727ZM46.9909 94.0713V83.4256C46.9909 82.5836 46.9174 81.7215 46.7704 80.8394C46.6367 79.9439 46.3694 79.1152 45.9684 78.3534C45.5808 77.5915 45.0262 76.9767 44.3044 76.5089C43.596 76.0411 42.6671 75.8072 41.5177 75.8072C40.7692 75.8072 40.0609 75.9342 39.3926 76.1881C38.7243 76.4287 38.1362 76.823 37.6283 77.371C37.1338 77.919 36.7395 78.6407 36.4455 79.5362C36.1648 80.4317 36.0244 81.521 36.0244 82.8041L33.4182 81.8217C33.4182 79.857 33.7857 78.1262 34.5208 76.6292C35.2559 75.1189 36.3118 73.9427 37.6885 73.1007C39.0651 72.2587 40.7291 71.8377 42.6805 71.8377C44.1774 71.8377 45.4338 72.0782 46.4496 72.5594C47.4654 73.0406 48.2874 73.6754 48.9155 74.464C49.5571 75.2392 50.0449 76.0879 50.3791 77.0101C50.7132 77.9324 50.9404 78.8345 51.0607 79.7167C51.181 80.5988 51.2412 81.374 51.2412 82.0423V94.0713H46.9909ZM31.7742 94.0713V65.2016H35.5232V80.7792H36.0244V94.0713H31.7742ZM61.7759 94.6727C60.1721 94.6727 58.8288 94.3787 57.7462 93.7906C56.6636 93.1892 55.8416 92.4006 55.2803 91.4249C54.7323 90.4359 54.4583 89.3532 54.4583 88.1771C54.4583 87.0811 54.6521 86.1188 55.0397 85.2901C55.4273 84.4614 56.002 83.7597 56.7639 83.185C57.5257 82.5969 58.4613 82.1225 59.5706 81.7616C60.5329 81.4809 61.6222 81.2337 62.8385 81.0198C64.0548 80.806 65.3312 80.6055 66.6677 80.4184C68.0177 80.2312 69.3542 80.0441 70.6774 79.857L69.1537 80.699C69.1805 79.0016 68.8196 77.7452 68.0711 76.9299C67.336 76.1013 66.0663 75.6869 64.2619 75.6869C63.1259 75.6869 62.0833 75.9543 61.1344 76.4889C60.1854 77.0101 59.5238 77.8789 59.1496 79.0952L55.2402 77.8923C55.7748 76.0344 56.7906 74.5575 58.2875 73.4616C59.7978 72.3656 61.8027 71.8176 64.302 71.8176C66.24 71.8176 67.9241 72.1517 69.3542 72.82C70.7977 73.4749 71.8536 74.5175 72.5219 75.9476C72.8694 76.6559 73.0832 77.4044 73.1634 78.193C73.2436 78.9816 73.2837 79.8303 73.2837 80.7391V94.0713H69.5748V89.1193L70.2965 89.7609C69.401 91.4182 68.2582 92.6545 66.8682 93.4698C65.4916 94.2718 63.7941 94.6727 61.7759 94.6727ZM62.5177 91.2445C63.7073 91.2445 64.7297 91.0373 65.5851 90.623C66.4405 90.1953 67.1289 89.654 67.6501 88.9991C68.1714 88.3441 68.5122 87.6625 68.6726 86.9541C68.8998 86.3126 69.0268 85.5908 69.0535 84.7889C69.0936 83.987 69.1136 83.3454 69.1136 82.8643L70.4769 83.3655C69.1537 83.5659 67.9508 83.7464 66.8682 83.9068C65.7856 84.0672 64.8032 84.2275 63.9211 84.3879C63.0524 84.535 62.2772 84.7154 61.5955 84.9292C61.0208 85.1297 60.5062 85.3703 60.0518 85.651C59.6107 85.9317 59.2565 86.2725 58.9892 86.6734C58.7353 87.0744 58.6083 87.5623 58.6083 88.137C58.6083 88.6983 58.7486 89.2196 59.0293 89.7007C59.31 90.1685 59.7377 90.5428 60.3124 90.8235C60.8871 91.1041 61.6222 91.2445 62.5177 91.2445ZM92.8844 94.0713V83.4256C92.8844 82.5836 92.8109 81.7215 92.6639 80.8394C92.5302 79.9439 92.2629 79.1152 91.862 78.3534C91.4744 77.5915 90.9197 76.9767 90.1979 76.5089C89.4896 76.0411 88.5607 75.8072 87.4112 75.8072C86.6628 75.8072 85.9544 75.9342 85.2861 76.1881C84.6178 76.4287 84.0297 76.823 83.5218 77.371C83.0273 77.919 82.633 78.6407 82.339 79.5362C82.0583 80.4317 81.918 81.521 81.918 82.8041L79.3117 81.8217C79.3117 79.857 79.6792 78.1262 80.4143 76.6292C81.1495 75.1189 82.2053 73.9427 83.582 73.1007C84.9586 72.2587 86.6227 71.8377 88.574 71.8377C90.071 71.8377 91.3273 72.0782 92.3431 72.5594C93.3589 73.0406 94.1809 73.6754 94.8091 74.464C95.4506 75.2392 95.9385 76.0879 96.2726 77.0101C96.6067 77.9324 96.834 78.8345 96.9542 79.7167C97.0745 80.5988 97.1347 81.374 97.1347 82.0423V94.0713H92.8844ZM77.6677 94.0713V72.4191H81.4168V78.6741H81.918V94.0713H77.6677ZM116.751 94.0713V83.4256C116.751 82.5836 116.678 81.7215 116.531 80.8394C116.397 79.9439 116.13 79.1152 115.729 78.3534C115.341 77.5915 114.787 76.9767 114.065 76.5089C113.357 76.0411 112.428 75.8072 111.278 75.8072C110.53 75.8072 109.821 75.9342 109.153 76.1881C108.485 76.4287 107.897 76.823 107.389 77.371C106.894 77.919 106.5 78.6407 106.206 79.5362C105.925 80.4317 105.785 81.521 105.785 82.8041L103.179 81.8217C103.179 79.857 103.546 78.1262 104.281 76.6292C105.016 75.1189 106.072 73.9427 107.449 73.1007C108.826 72.2587 110.49 71.8377 112.441 71.8377C113.938 71.8377 115.194 72.0782 116.21 72.5594C117.226 73.0406 118.048 73.6754 118.676 74.464C119.318 75.2392 119.805 76.0879 120.14 77.0101C120.474 77.9324 120.701 78.8345 120.821 79.7167C120.941 80.5988 121.002 81.374 121.002 82.0423V94.0713H116.751ZM101.535 94.0713V72.4191H105.284V78.6741H105.785V94.0713H101.535ZM134.751 94.6727C132.599 94.6727 130.708 94.2049 129.077 93.2694C127.46 92.3204 126.197 91.0039 125.288 89.3198C124.392 87.6224 123.945 85.6577 123.945 83.4256C123.945 81.0599 124.386 79.0083 125.268 77.2708C126.163 75.5332 127.406 74.19 128.997 73.241C130.587 72.2921 132.438 71.8176 134.55 71.8176C136.756 71.8176 138.633 72.3322 140.184 73.3613C141.734 74.3771 142.89 75.8273 143.652 77.7118C144.427 79.5964 144.735 81.8351 144.574 84.428H140.384V82.9044C140.358 80.3916 139.876 78.5338 138.941 77.3309C138.019 76.128 136.609 75.5266 134.711 75.5266C132.612 75.5266 131.035 76.1881 129.979 77.5113C128.923 78.8345 128.395 80.7458 128.395 83.2452C128.395 85.6242 128.923 87.4687 129.979 88.7785C131.035 90.075 132.559 90.7232 134.55 90.7232C135.86 90.7232 136.989 90.4292 137.938 89.8411C138.901 89.2396 139.649 88.3842 140.184 87.2749L144.294 88.578C143.452 90.516 142.175 92.0197 140.465 93.0889C138.754 94.1448 136.849 94.6727 134.751 94.6727ZM127.032 84.428V81.1601H142.489V84.428H127.032ZM148.671 94.0713V64.6002H152.862V94.0713H148.671ZM155.674 94.0713L165.518 79.456L155.935 65.2016H161.067L168.104 75.9075L175.101 65.2016H180.254L170.671 79.456L180.494 94.0713H175.362L168.104 83.0246L160.827 94.0713H155.674Z" fill="white"/>
<defs>
<linearGradient id="paint0_linear_430_141" x1="90.9998" y1="23.8262" x2="90.9998" y2="33.3418" gradientUnits="userSpaceOnUse">
<stop stop-color="#AB7BFF"/>
<stop offset="1" stop-color="#664A99"/>
</linearGradient>
<linearGradient id="paint1_linear_430_141" x1="91.0001" y1="34.9278" x2="91.0001" y2="47.6152" gradientUnits="userSpaceOnUse">
<stop stop-color="#AB7BFF"/>
<stop offset="1" stop-color="#664A99"/>
</linearGradient>
</defs>
</svg>
