<svg width="300" height="83" viewBox="0 0 300 83" fill="none" xmlns="http://www.w3.org/2000/svg">
<path d="M0.88 61V0.519998H19.822C20.382 0.519998 21.418 0.533998 22.93 0.562C24.47 0.589998 25.94 0.701996 27.34 0.897995C32.072 1.486 36.048 3.18 39.268 5.98C42.516 8.78 44.966 12.336 46.618 16.648C48.27 20.932 49.096 25.636 49.096 30.76C49.096 35.912 48.27 40.644 46.618 44.956C44.966 49.24 42.516 52.782 39.268 55.582C36.048 58.354 32.072 60.034 27.34 60.622C25.94 60.818 24.47 60.93 22.93 60.958C21.418 60.986 20.382 61 19.822 61H0.88ZM9.868 52.642H19.822C20.774 52.642 21.908 52.614 23.224 52.558C24.54 52.502 25.702 52.39 26.71 52.222C29.79 51.634 32.282 50.304 34.186 48.232C36.118 46.132 37.532 43.556 38.428 40.504C39.324 37.452 39.772 34.204 39.772 30.76C39.772 27.204 39.31 23.914 38.386 20.89C37.462 17.838 36.034 15.29 34.102 13.246C32.198 11.174 29.734 9.858 26.71 9.298C25.702 9.102 24.526 8.99 23.182 8.962C21.866 8.906 20.746 8.878 19.822 8.878H9.868V52.642ZM77.3141 62.26C72.8061 62.26 68.8441 61.28 65.4281 59.32C62.0401 57.332 59.3941 54.574 57.4901 51.046C55.6141 47.49 54.6761 43.374 54.6761 38.698C54.6761 33.742 55.6001 29.444 57.4481 25.804C59.3241 22.164 61.9281 19.35 65.2601 17.362C68.5921 15.374 72.4701 14.38 76.8941 14.38C81.5141 14.38 85.4481 15.458 88.6961 17.614C91.9441 19.742 94.3661 22.78 95.9621 26.728C97.5861 30.676 98.2301 35.366 97.8941 40.798H89.1161V37.606C89.0601 32.342 88.0521 28.45 86.0921 25.93C84.1601 23.41 81.2061 22.15 77.2301 22.15C72.8341 22.15 69.5301 23.536 67.3181 26.308C65.1061 29.08 64.0001 33.084 64.0001 38.32C64.0001 43.304 65.1061 47.168 67.3181 49.912C69.5301 52.628 72.7221 53.986 76.8941 53.986C79.6381 53.986 82.0041 53.37 83.9921 52.138C86.0081 50.878 87.5761 49.086 88.6961 46.762L97.3061 49.492C95.5421 53.552 92.8681 56.702 89.2841 58.942C85.7001 61.154 81.7101 62.26 77.3141 62.26ZM61.1441 40.798V33.952H93.5261V40.798H61.1441ZM124.327 82.42C121.891 82.42 119.525 82.042 117.229 81.286C114.961 80.53 112.889 79.41 111.013 77.926C109.137 76.47 107.583 74.664 106.351 72.508L114.457 68.392C115.437 70.324 116.837 71.738 118.657 72.634C120.477 73.53 122.395 73.978 124.411 73.978C126.903 73.978 129.031 73.53 130.795 72.634C132.559 71.766 133.889 70.45 134.785 68.686C135.709 66.922 136.157 64.738 136.129 62.134V49.45H137.179V15.64H144.949V62.218C144.949 63.422 144.907 64.57 144.823 65.662C144.739 66.754 144.585 67.846 144.361 68.938C143.717 71.99 142.485 74.51 140.665 76.498C138.873 78.486 136.577 79.97 133.777 80.95C131.005 81.93 127.855 82.42 124.327 82.42ZM123.655 62.26C119.427 62.26 115.773 61.21 112.693 59.11C109.641 57.01 107.275 54.154 105.595 50.542C103.943 46.902 103.117 42.814 103.117 38.278C103.117 33.714 103.957 29.64 105.637 26.056C107.317 22.444 109.697 19.602 112.777 17.53C115.885 15.43 119.567 14.38 123.823 14.38C128.107 14.38 131.705 15.43 134.617 17.53C137.557 19.602 139.769 22.444 141.253 26.056C142.765 29.668 143.521 33.742 143.521 38.278C143.521 42.814 142.765 46.888 141.253 50.5C139.741 54.112 137.515 56.982 134.575 59.11C131.635 61.21 127.995 62.26 123.655 62.26ZM124.873 54.322C127.757 54.322 130.109 53.636 131.929 52.264C133.749 50.892 135.079 49.002 135.919 46.594C136.759 44.186 137.179 41.414 137.179 38.278C137.179 35.142 136.745 32.37 135.877 29.962C135.037 27.554 133.721 25.678 131.929 24.334C130.165 22.99 127.911 22.318 125.167 22.318C122.255 22.318 119.861 23.032 117.985 24.46C116.109 25.888 114.709 27.806 113.785 30.214C112.889 32.622 112.441 35.31 112.441 38.278C112.441 41.274 112.889 43.99 113.785 46.426C114.709 48.834 116.081 50.752 117.901 52.18C119.749 53.608 122.073 54.322 124.873 54.322ZM175.181 62.26C170.673 62.26 166.711 61.28 163.295 59.32C159.907 57.332 157.261 54.574 155.357 51.046C153.481 47.49 152.543 43.374 152.543 38.698C152.543 33.742 153.467 29.444 155.315 25.804C157.191 22.164 159.795 19.35 163.127 17.362C166.459 15.374 170.337 14.38 174.761 14.38C179.381 14.38 183.315 15.458 186.563 17.614C189.811 19.742 192.233 22.78 193.829 26.728C195.453 30.676 196.097 35.366 195.761 40.798H186.983V37.606C186.927 32.342 185.919 28.45 183.959 25.93C182.027 23.41 179.073 22.15 175.097 22.15C170.701 22.15 167.397 23.536 165.185 26.308C162.973 29.08 161.867 33.084 161.867 38.32C161.867 43.304 162.973 47.168 165.185 49.912C167.397 52.628 170.589 53.986 174.761 53.986C177.505 53.986 179.871 53.37 181.859 52.138C183.875 50.878 185.443 49.086 186.563 46.762L195.173 49.492C193.409 53.552 190.735 56.702 187.151 58.942C183.567 61.154 179.577 62.26 175.181 62.26ZM159.011 40.798V33.952H191.393V40.798H159.011ZM234.109 61V38.698C234.109 36.934 233.955 35.128 233.647 33.28C233.367 31.404 232.807 29.668 231.967 28.072C231.155 26.476 229.993 25.188 228.481 24.208C226.997 23.228 225.051 22.738 222.643 22.738C221.075 22.738 219.591 23.004 218.191 23.536C216.791 24.04 215.559 24.866 214.495 26.014C213.459 27.162 212.633 28.674 212.017 30.55C211.429 32.426 211.135 34.708 211.135 37.396L205.675 35.338C205.675 31.222 206.445 27.596 207.985 24.46C209.525 21.296 211.737 18.832 214.621 17.068C217.505 15.304 220.991 14.422 225.079 14.422C228.215 14.422 230.847 14.926 232.975 15.934C235.103 16.942 236.825 18.272 238.141 19.924C239.485 21.548 240.507 23.326 241.207 25.258C241.907 27.19 242.383 29.08 242.635 30.928C242.887 32.776 243.013 34.4 243.013 35.8V61H234.109ZM202.231 61V15.64H210.085V28.744H211.135V61H202.231ZM247.233 61L267.855 30.382L247.779 0.519998H258.531L273.273 22.948L287.931 0.519998H298.725L278.649 30.382L299.229 61H288.477L273.273 37.858L258.027 61H247.233Z" fill="black"/>
</svg>
