<svg width="52" height="65" viewBox="0 0 52 65" fill="none" xmlns="http://www.w3.org/2000/svg">
<path d="M1.2944 47.595V2.47161C1.2944 1.37569 2.18282 0.487266 3.27874 0.487266H48.7357C49.8316 0.487266 50.72 1.37568 50.72 2.4716V47.595C50.72 48.2728 50.3741 48.9037 49.8026 49.2681L27.0741 63.7614C26.4234 64.1764 25.5911 64.1764 24.9403 63.7614L2.21183 49.2681C1.64035 48.9037 1.2944 48.2728 1.2944 47.595Z" fill="#1E0C40" stroke="white" stroke-width="0.605392"/>
<mask id="mask0_430_139" style="mask-type:luminance" maskUnits="userSpaceOnUse" x="0" y="0" width="52" height="65">
<path d="M3.75598 0.18457C2.22122 0.18457 0.977051 1.42874 0.977051 2.9635V47.3253C0.977051 48.2745 1.46153 49.158 2.26186 49.6684L24.4984 63.848C25.4098 64.4291 26.5754 64.4291 27.4867 63.848L49.7233 49.6684C50.5236 49.158 51.0081 48.2745 51.0081 47.3253V2.96349C51.0081 1.42873 49.7639 0.18457 48.2292 0.18457H3.75598Z" fill="white"/>
</mask>
<g mask="url(#mask0_430_139)">
<path d="M14.1967 13.8419V19.1879H17.6526V26.3761H14.1967V38.9102H5.90381V6.65137H17.8856V13.8395H14.1991L14.1967 13.8419Z" fill="#D9D9D9"/>
<path d="M27.4685 6.65422C32.9514 6.65422 36.1312 9.50977 36.1312 14.5796V14.8102C36.1312 19.6495 33.4582 22.1376 31.4312 22.1376V22.69C33.3669 22.69 36.5923 25.6392 36.5923 30.3849V30.9829C36.5923 35.9591 33.1364 38.9083 27.4685 38.9083H18.9883V6.64941H27.4685V6.65422ZM27.2836 18.8209H27.3748C27.8359 18.8209 27.8359 18.7297 27.8359 18.0836V14.582C27.8359 13.936 27.8359 13.8447 27.3748 13.8447H27.2836V18.8209ZM27.2836 31.725H27.3748C27.8359 31.725 27.8359 31.6313 27.8359 30.9877V26.7488C27.8359 26.1027 27.8359 26.0115 27.3748 26.0115H27.2836V31.7274V31.725Z" fill="#D9D9D9"/>
<path d="M46.0863 6.6543V38.9132H37.791V6.6543H46.0863Z" fill="#D9D9D9"/>
<path d="M15.5789 34.8447H15.699C15.8863 34.8447 16.0352 34.996 16.0352 35.181V40.7191H15.2427V35.181C15.2427 34.9936 15.394 34.8447 15.5789 34.8447Z" fill="#9259EF"/>
<path d="M35.428 34.8447H35.5481C35.7354 34.8447 35.8843 34.996 35.8843 35.181V40.7191H35.0918V35.181C35.0918 34.9936 35.2431 34.8447 35.428 34.8447Z" fill="#9259EF"/>
<path d="M17.236 40.7215H14.0586V43.0607H12.1709V45.6929H25.5601V36.1416H17.236V40.7215Z" fill="#300A6F"/>
<path d="M37.062 43.0607V40.7215H33.8846V36.1416H25.5605V45.6929H38.9497V43.0607H37.062Z" fill="#300A6F"/>
<path d="M35.8848 36.1416H33.8843V40.7191H35.8848V36.1416Z" fill="#300A6F"/>
<path d="M17.2432 36.1416H15.2427V40.7191H17.2432V36.1416Z" fill="#300A6F"/>
<path d="M25.466 47.7295H25.3843H25.3027L12.2041 47.8352V71.6523H21.0446V55.261C21.0446 55.0713 21.0013 54.8792 21.0181 54.6919C20.9917 54.4973 20.9509 54.3004 20.9509 54.0987C20.9509 51.6202 22.9467 49.6124 25.4252 49.6124C27.9036 49.6124 29.9066 51.6202 29.9066 54.0987C29.9066 54.3917 29.9066 54.6775 29.8514 54.956C29.8562 55.0569 29.885 55.1602 29.885 55.261V71.6523H38.5621V47.8352L25.4636 47.7295H25.466Z" fill="#300A6F"/>
<path d="M36.1947 49.8956C36.1947 49.8428 36.1803 49.79 36.1539 49.7227C36.113 49.6026 36.0602 49.4561 35.9545 49.3096C35.8488 49.1631 35.7023 49.0166 35.515 48.911C35.3277 48.8053 35.1019 48.738 34.8642 48.7236H34.6912C34.624 48.738 34.5592 48.738 34.5039 48.75C34.3838 48.7765 34.2638 48.8293 34.1581 48.8821C33.9323 49.0022 33.745 49.1751 33.6129 49.4009C33.5457 49.5066 33.5072 49.6267 33.4664 49.7467C33.44 49.8668 33.4136 49.9989 33.4136 50.119C33.4136 50.1718 33.4136 50.2655 33.428 50.3183C33.428 50.3712 33.4544 50.4384 33.4688 50.4912C33.5096 50.6113 33.5481 50.7314 33.6153 50.8371C33.7474 51.0508 33.9347 51.2357 34.1605 51.3558C34.3862 51.4759 34.6264 51.5288 34.8642 51.5288C35.0899 51.5143 35.3301 51.4495 35.515 51.3414C35.6999 51.2333 35.8464 51.0892 35.9545 50.9427C36.0602 50.7962 36.113 50.6497 36.1539 50.5297C36.1683 50.4624 36.1803 50.4096 36.1947 50.3567C36.2091 50.3039 36.2091 50.2631 36.2091 50.2247V50.0109C36.2235 49.9845 36.2091 49.9437 36.1947 49.8908V49.8956Z" fill="#9259EF"/>
<path d="M36.0454 49.9202C36.0454 49.8722 36.0334 49.8242 36.0094 49.7665C35.9733 49.6609 35.9253 49.5288 35.8316 49.3991C35.7356 49.2694 35.6059 49.1373 35.4402 49.0436C35.2745 48.95 35.0727 48.8899 34.859 48.8779H34.7053C34.6452 48.8899 34.5876 48.8899 34.5396 48.9019C34.4339 48.926 34.3258 48.974 34.2322 49.0196C34.0304 49.1253 33.8647 49.2814 33.7446 49.4831C33.6846 49.5792 33.6485 49.6849 33.6149 49.7906C33.5909 49.8962 33.5669 50.0163 33.5669 50.122C33.5669 50.17 33.5669 50.2517 33.5789 50.2997C33.5789 50.3477 33.6029 50.4054 33.6149 50.4534C33.651 50.5591 33.687 50.6672 33.7446 50.7608C33.8623 50.9506 34.0304 51.1163 34.2322 51.2243C34.4339 51.33 34.6476 51.378 34.8614 51.378C35.0631 51.366 35.2769 51.306 35.4426 51.2123C35.6083 51.1187 35.7404 50.9866 35.834 50.8569C35.9301 50.7272 35.9757 50.5951 36.0118 50.4894C36.0238 50.4294 36.0358 50.3838 36.0478 50.3357C36.0598 50.2877 36.0598 50.2517 36.0598 50.2181V50.0283C36.0718 50.0043 36.0598 49.9683 36.0478 49.9226L36.0454 49.9202Z" fill="#6537B1"/>
<path d="M31.5789 38.6582C31.5789 38.699 31.5933 38.7519 31.6053 38.8047C31.6317 38.9104 31.6846 39.0304 31.7782 39.1505C31.8719 39.2706 31.992 39.3907 32.1505 39.4819C32.309 39.5756 32.4963 39.6285 32.6957 39.6285C32.9094 39.6285 33.0943 39.5756 33.2817 39.4819C33.4546 39.3883 33.6131 39.2298 33.7212 39.0569C33.774 38.9632 33.8148 38.8695 33.8413 38.7783C33.8677 38.6726 33.8821 38.6054 33.8821 38.4733V38.406C33.8821 38.3796 33.8821 38.3532 33.8677 38.3268C33.8677 38.2739 33.8533 38.2211 33.8413 38.1803C33.8148 38.0866 33.774 37.9809 33.7212 37.9017C33.6155 37.7288 33.469 37.5702 33.2817 37.4766C33.188 37.4237 33.0943 37.3829 33.0031 37.3709C32.9622 37.3565 32.8974 37.3445 32.8446 37.3445C32.8037 37.3445 32.7509 37.3301 32.6981 37.3301C32.4987 37.3301 32.3114 37.3829 32.1529 37.4766C31.9944 37.5702 31.8743 37.6903 31.7806 37.808C31.687 37.9281 31.6485 38.0482 31.6077 38.1538C31.5933 38.2067 31.5813 38.2475 31.5813 38.3003C31.5669 38.3412 31.5669 38.3796 31.5669 38.406V38.5933C31.5669 38.5933 31.5669 38.6198 31.5813 38.6606L31.5789 38.6582Z" fill="#9259EF"/>
<path d="M27.892 37.3826C27.1139 37.3682 26.3357 37.3562 25.5576 37.3418V39.5369C25.5576 39.5369 25.5696 39.5369 25.5744 39.5369C26.3526 39.5369 27.1307 39.5225 27.9088 39.5225H29.9478V37.409L27.892 37.3826Z" fill="#6537B1"/>
<path d="M23.2252 37.3826C24.0034 37.3682 24.7815 37.3562 25.5596 37.3418V39.5369C25.5596 39.5369 25.5476 39.5369 25.5428 39.5369C24.7647 39.5369 23.9866 39.5225 23.2084 39.5225H21.1694V37.409L23.2252 37.3826Z" fill="#6537B1"/>
<path d="M32.7212 34.5898H18.1841V36.1413H32.7212V34.5898Z" fill="#6537B1"/>
<path d="M28.9535 34.2515H21.9551C21.9551 33.1443 22.8533 32.2461 23.9605 32.2461H26.9505C28.0577 32.2461 28.9559 33.1443 28.9559 34.2515H28.9535Z" fill="#300A6F"/>
<path d="M18.475 69.68C18.4486 69.0676 18.4222 68.3639 18.4078 67.6049C18.4078 67.2183 18.3934 66.834 18.3934 66.4353C18.3934 66.0367 18.3934 65.6236 18.379 65.2249C18.379 64.8118 18.379 64.4132 18.3934 64.0145C18.3934 63.6158 18.4078 63.2171 18.4078 62.8449C18.4078 62.4726 18.4222 62.1004 18.4342 61.7401C18.4486 61.3943 18.4606 61.0629 18.475 60.7555C18.5159 59.9173 18.5543 59.2664 18.5807 58.947H16.0133L13.8999 58.9326C13.9263 59.252 13.9792 59.9029 14.0056 60.7531C14.032 61.3655 14.0584 62.0692 14.0728 62.8281C14.0728 63.2147 14.0872 63.599 14.0872 63.9977C14.0872 64.3964 14.0872 64.8094 14.1016 65.2081C14.1016 65.6212 14.1016 66.0199 14.0872 66.4185C14.0872 66.8172 14.0728 67.2159 14.0728 67.5881C14.0728 67.9604 14.0584 68.3326 14.0464 68.6929C14.032 69.0387 14.02 69.3702 14.0056 69.6776C13.9816 70.2636 13.9527 70.7535 13.9263 71.1041H18.5471C18.5207 70.7511 18.4918 70.2612 18.4726 69.6776L18.475 69.68Z" fill="#6537B1"/>
<path d="M36.9243 69.68C36.8978 69.0676 36.8714 68.3639 36.857 67.6049C36.857 67.2183 36.8426 66.834 36.8426 66.4353C36.8426 66.0367 36.8426 65.6236 36.8282 65.2249C36.8282 64.8118 36.8282 64.4132 36.8426 64.0145C36.8426 63.6158 36.857 63.2171 36.857 62.8449C36.857 62.4726 36.8714 62.1004 36.8834 61.7401C36.8978 61.3943 36.9098 61.0629 36.9243 60.7555C36.9651 59.9173 37.0035 59.2664 37.0299 58.947H34.4626L32.3491 58.9326C32.3755 59.252 32.4284 59.9029 32.4548 60.7531C32.4812 61.3655 32.5076 62.0692 32.522 62.8281C32.522 63.2147 32.5364 63.599 32.5364 63.9977C32.5364 64.3964 32.5365 64.8094 32.5509 65.2081C32.5509 65.6212 32.5509 66.0199 32.5364 66.4185C32.5364 66.8172 32.522 67.2159 32.522 67.5881C32.522 67.9604 32.5076 68.3326 32.4956 68.6929C32.4812 69.0387 32.4692 69.3702 32.4548 69.6776C32.4308 70.2636 32.402 70.7535 32.3755 71.1041H36.9963C36.9699 70.7511 36.9411 70.2612 36.9219 69.6776L36.9243 69.68Z" fill="#6537B1"/>
<path d="M19.0321 52.6221H13.4482V53.8445H19.0321V52.6221Z" fill="#6537B1"/>
<path d="M19.0321 55.5469H13.4482V57.2352H19.0321V55.5469Z" fill="#6537B1"/>
<path d="M37.6063 52.6221H32.0225V53.8445H37.6063V52.6221Z" fill="#6537B1"/>
<path d="M37.6063 55.5469H32.0225V57.2352H37.6063V55.5469Z" fill="#6537B1"/>
<path d="M38.9492 43.0605H12.1709V43.6321H38.9492V43.0605Z" fill="#9259EF"/>
<path d="M37.0615 40.7217H14.0586V41.2044H37.0615V40.7217Z" fill="#9259EF"/>
<path d="M30.8629 34.0254H20.0435V34.5898H30.8629V34.0254Z" fill="#9259EF"/>
<path d="M38.483 46.1465H12.2114V47.8348H38.483V46.1465Z" fill="#300A6F"/>
<path d="M40.2124 44.3848H10.6938V46.5655H40.2124V44.3848Z" fill="#9259EF"/>
<path d="M12.8598 46.6016H12.2041V47.7471H12.8598V46.6016Z" fill="#9259EF"/>
<path d="M14.1715 46.6016H13.6792V47.7471H14.1715V46.6016Z" fill="#9259EF"/>
<path d="M15.4801 46.6016H14.9878V47.7471H15.4801V46.6016Z" fill="#9259EF"/>
<path d="M16.7912 46.6016H16.2988V47.7471H16.7912V46.6016Z" fill="#9259EF"/>
<path d="M18.2633 46.6016H17.771V47.7471H18.2633V46.6016Z" fill="#9259EF"/>
<path d="M19.5753 46.6016H19.083V47.7471H19.5753V46.6016Z" fill="#9259EF"/>
<path d="M20.8839 46.6016H20.3916V47.7471H20.8839V46.6016Z" fill="#9259EF"/>
<path d="M22.3563 46.6016H21.7007V47.7471H22.3563V46.6016Z" fill="#9259EF"/>
<path d="M23.6674 46.6016H23.0117V47.7471H23.6674V46.6016Z" fill="#9259EF"/>
<path d="M24.9767 46.6016H24.4844V47.7471H24.9767V46.6016Z" fill="#9259EF"/>
<path d="M26.2846 46.6016H25.958V47.7471H26.2846V46.6016Z" fill="#9259EF"/>
<path d="M27.5963 46.6016H27.104V47.7471H27.5963V46.6016Z" fill="#9259EF"/>
<path d="M29.071 46.6016H28.5786V47.7471H29.071V46.6016Z" fill="#9259EF"/>
<path d="M30.5438 46.6016H29.8882V47.7471H30.5438V46.6016Z" fill="#9259EF"/>
<path d="M31.6891 46.6016H31.1968V47.7471H31.6891V46.6016Z" fill="#9259EF"/>
<path d="M33.1637 46.6016H32.6714V47.7471H33.1637V46.6016Z" fill="#9259EF"/>
<path d="M34.4723 46.6016H33.98V47.7471H34.4723V46.6016Z" fill="#9259EF"/>
<path d="M35.7834 46.6016H35.291V47.7471H35.7834V46.6016Z" fill="#9259EF"/>
<path d="M37.0898 46.6016H36.7632V47.7471H37.0898V46.6016Z" fill="#9259EF"/>
<path d="M38.5648 46.6016H37.9092V47.7471H38.5648V46.6016Z" fill="#9259EF"/>
<path d="M20.1227 48.8916L19.981 71.8393L20.8816 71.7889V53.9591C20.8816 50.0588 24.3207 49.3695 25.1373 49.2518V48.8916H20.1203H20.1227Z" fill="#6537B1"/>
<path d="M30.8701 71.8393L30.6443 48.8916H25.7954V49.2494C26.6144 49.3599 30.0511 50.042 30.0511 53.9567V71.7865L30.8701 71.8369V71.8393Z" fill="#6537B1"/>
<path d="M20.7464 58.4676C20.8521 58.4676 20.9458 58.5469 20.9722 58.667C21.1979 58.667 21.4237 58.667 21.6494 58.6814C21.6638 58.2299 21.6638 57.7904 21.6638 57.3389H20.9722C20.9866 57.4325 20.8929 57.5382 20.7728 57.5382C20.0427 57.5382 19.3246 57.5238 18.5921 57.5118C17.9365 57.4998 17.2905 57.4878 16.6372 57.4758V58.4821L20.7464 58.47V58.4676Z" fill="#9259EF"/>
<path d="M20.7857 55.0907C20.9058 55.0907 20.9995 55.1699 21.0115 55.29C21.2372 55.29 21.463 55.29 21.6888 55.3044C21.7032 54.8529 21.7032 54.4134 21.7032 53.9619H21.0908L21.0763 54.0027V54.0172C21.0499 54.1108 20.9707 54.1757 20.877 54.1757L18.6819 54.1612L16.6333 54.1492V55.1555L18.6002 55.1075L20.7809 55.0931L20.7857 55.0907Z" fill="#9259EF"/>
<path d="M12.5288 58.4676C12.4231 58.4676 12.3294 58.5469 12.303 58.667C12.0772 58.667 11.8515 58.667 11.6257 58.6814C11.6113 58.2299 11.6113 57.7904 11.6113 57.3389H12.303C12.2886 57.4325 12.3823 57.5382 12.5023 57.5382C13.2324 57.5382 13.9505 57.5238 14.683 57.5118C15.3387 57.4998 15.9847 57.4878 16.638 57.4758V58.4821L12.5288 58.47V58.4676Z" fill="#9259EF"/>
<path d="M12.4902 55.0907C12.3701 55.0907 12.2764 55.1699 12.2644 55.29C12.0387 55.29 11.8129 55.29 11.5872 55.3044C11.5728 54.8529 11.5728 54.4134 11.5728 53.9619H12.1852L12.1996 54.0027V54.0172C12.226 54.1108 12.3053 54.1757 12.3989 54.1757L14.594 54.1612L16.6426 54.1492V55.1555L14.6757 55.1075L12.495 55.0931L12.4902 55.0907Z" fill="#9259EF"/>
<path d="M38.471 58.4676C38.5767 58.4676 38.6704 58.5469 38.6968 58.667C38.9225 58.667 39.1483 58.667 39.374 58.6814C39.3885 58.2299 39.3885 57.7904 39.3885 57.3389H38.6968C38.7112 57.4325 38.6175 57.5382 38.4974 57.5382C37.7649 57.5382 37.0493 57.5238 36.3168 57.5118C35.6611 57.4998 35.0151 57.4878 34.3618 57.4758V58.4821L38.471 58.47V58.4676Z" fill="#9259EF"/>
<path d="M38.5094 55.0907C38.6295 55.0907 38.7231 55.1699 38.7351 55.29C38.9609 55.29 39.1866 55.29 39.4124 55.3044C39.4268 54.8529 39.4268 54.4134 39.4268 53.9619H38.8144L38.8 54.0027V54.0172C38.7736 54.1108 38.6943 54.1757 38.6006 54.1757L36.4055 54.1612L34.3569 54.1492V55.1555L36.3239 55.1075L38.5046 55.0931L38.5094 55.0907Z" fill="#9259EF"/>
<path d="M30.2529 58.4676C30.1472 58.4676 30.0535 58.5469 30.0271 58.667C29.8014 58.667 29.5756 58.667 29.3499 58.6814C29.3354 58.2299 29.3354 57.7904 29.3354 57.3389H30.0271C30.0127 57.4325 30.1064 57.5382 30.2265 57.5382C30.959 57.5382 31.6746 57.5238 32.4072 57.5118C33.0628 57.4998 33.7088 57.4878 34.3621 57.4758V58.4821L30.2529 58.47V58.4676Z" fill="#9259EF"/>
<path d="M30.2148 55.0907C30.0947 55.0907 30.001 55.1699 29.989 55.29C29.7633 55.29 29.5375 55.29 29.3118 55.3044C29.2974 54.8529 29.2974 54.4134 29.2974 53.9619H29.9098L29.9242 54.0027V54.0172C29.9506 54.1108 30.0299 54.1757 30.1235 54.1757L32.3186 54.1612L34.3672 54.1492V55.1555L32.4003 55.1075L30.2196 55.0931L30.2148 55.0907Z" fill="#9259EF"/>
<path d="M19.342 38.5933V38.406C19.342 38.3796 19.342 38.3388 19.3276 38.3003C19.3276 38.2475 19.3132 38.2067 19.3012 38.1538C19.2604 38.0482 19.222 37.9281 19.1283 37.808C19.0346 37.6879 18.9145 37.5678 18.756 37.4766C18.5975 37.3829 18.4102 37.3301 18.2109 37.3301C18.158 37.3301 18.1052 37.3445 18.0644 37.3445C18.0115 37.3445 17.9443 37.3589 17.9059 37.3709C17.8122 37.3853 17.7185 37.4237 17.6273 37.4766C17.4399 37.5702 17.2958 37.7288 17.1878 37.9017C17.1349 37.9809 17.0941 38.089 17.0677 38.1803C17.0533 38.2211 17.0413 38.2739 17.0413 38.3268C17.0269 38.3532 17.0269 38.3796 17.0269 38.406V38.4733C17.0269 38.6054 17.0413 38.6726 17.0677 38.7783C17.0941 38.8719 17.1349 38.9656 17.1878 39.0569C17.2934 39.2298 17.4543 39.3883 17.6273 39.4819C17.8146 39.5756 17.9995 39.6285 18.2133 39.6285C18.4126 39.6285 18.5999 39.5756 18.7584 39.4819C18.9169 39.3883 19.037 39.2682 19.1307 39.1505C19.2244 39.0304 19.2772 38.9104 19.3036 38.8047C19.318 38.7519 19.33 38.699 19.33 38.6582C19.3444 38.6174 19.3444 38.5909 19.3444 38.5909L19.342 38.5933Z" fill="#9259EF"/>
<path d="M19.1978 38.5803V38.417C19.1978 38.393 19.1978 38.3594 19.1858 38.3234C19.1858 38.2777 19.1738 38.2417 19.1618 38.1961C19.1258 38.1024 19.0922 37.9991 19.0105 37.8935C18.9289 37.7878 18.8232 37.6845 18.6839 37.6029C18.5446 37.5212 18.3813 37.4756 18.206 37.4756C18.1603 37.4756 18.1123 37.4876 18.0787 37.4876C18.033 37.4876 17.973 37.4996 17.9394 37.5116C17.8577 37.5236 17.7761 37.5572 17.6944 37.6053C17.5311 37.6869 17.4038 37.8262 17.3102 37.9775C17.2645 38.0472 17.2285 38.1408 17.2045 38.2225C17.1925 38.2585 17.1805 38.3041 17.1805 38.3498C17.1685 38.3738 17.1685 38.3954 17.1685 38.4194V38.4771C17.1685 38.5923 17.1805 38.6524 17.2045 38.7461C17.2285 38.8277 17.2621 38.9094 17.3102 38.991C17.4038 39.1423 17.5431 39.2816 17.6944 39.3633C17.8577 39.4449 18.021 39.4906 18.206 39.4906C18.3813 39.4906 18.5446 39.4449 18.6839 39.3633C18.8232 39.2816 18.9289 39.1759 19.0105 39.0727C19.0922 38.967 19.1378 38.8637 19.1618 38.7701C19.1738 38.7244 19.1858 38.6764 19.1858 38.6428C19.1978 38.6068 19.1978 38.5851 19.1978 38.5851V38.5803Z" fill="#6537B1"/>
<path d="M33.7354 38.5803V38.417C33.7354 38.393 33.7354 38.3594 33.7234 38.3234C33.7234 38.2777 33.7114 38.2417 33.6994 38.1961C33.6634 38.1024 33.6298 37.9991 33.5481 37.8935C33.4665 37.7878 33.3608 37.6845 33.2215 37.6029C33.0822 37.5212 32.9189 37.4756 32.7436 37.4756C32.6979 37.4756 32.6499 37.4876 32.6163 37.4876C32.5706 37.4876 32.5106 37.4996 32.477 37.5116C32.3953 37.5236 32.3137 37.5572 32.232 37.6053C32.0687 37.6869 31.9414 37.8262 31.8478 37.9775C31.8021 38.0472 31.7661 38.1408 31.7421 38.2225C31.7301 38.2585 31.7181 38.3041 31.7181 38.3498C31.7061 38.3738 31.7061 38.3954 31.7061 38.4194V38.4771C31.7061 38.5923 31.7181 38.6524 31.7421 38.7461C31.7661 38.8277 31.7997 38.9094 31.8478 38.991C31.9414 39.1423 32.0807 39.2816 32.232 39.3633C32.3953 39.4449 32.5586 39.4906 32.7436 39.4906C32.9189 39.4906 33.0822 39.4449 33.2215 39.3633C33.3608 39.2816 33.4665 39.1759 33.5481 39.0727C33.6298 38.967 33.6754 38.8637 33.6994 38.7701C33.7114 38.7244 33.7234 38.6764 33.7234 38.6428C33.7354 38.6068 33.7354 38.5851 33.7354 38.5851V38.5803Z" fill="#6537B1"/>
<path d="M14.7262 50.3592C14.7262 50.412 14.7407 50.4648 14.7671 50.5321C14.8079 50.6522 14.8607 50.7987 14.9664 50.9452C15.0721 51.0917 15.2186 51.2382 15.4059 51.3438C15.5932 51.4495 15.819 51.5167 16.0568 51.5312C16.3089 51.5456 16.5491 51.4783 16.7604 51.3582C16.9862 51.2382 17.1735 51.0652 17.3056 50.8395C17.3729 50.7338 17.4113 50.6137 17.4521 50.4936C17.4785 50.3616 17.5049 50.2799 17.5049 50.1214V50.0277C17.5049 50.0013 17.5049 49.9605 17.4905 49.9341C17.4905 49.8668 17.4641 49.814 17.4497 49.7467C17.4089 49.6267 17.3705 49.5066 17.3032 49.4009C17.1711 49.1872 16.9838 49.0022 16.758 48.8821C16.6524 48.8293 16.5323 48.7765 16.4122 48.75C16.3594 48.7356 16.2921 48.7236 16.2249 48.7236H16.052C15.8118 48.738 15.586 48.8029 15.4011 48.911C15.2162 49.019 15.0697 49.1631 14.9616 49.3096C14.8559 49.4561 14.8031 49.6026 14.7623 49.7227C14.7479 49.79 14.7359 49.8428 14.7214 49.8956C14.707 49.9485 14.707 49.9893 14.707 50.0277V50.2415C14.707 50.2823 14.707 50.3207 14.7214 50.3616L14.7262 50.3592Z" fill="#9259EF"/>
<path d="M17.3413 49.9202C17.3413 49.8722 17.3293 49.8242 17.3053 49.7665C17.2692 49.6609 17.2212 49.5288 17.1275 49.3991C17.0315 49.2694 16.9018 49.1373 16.7361 49.0436C16.5704 48.95 16.3686 48.8899 16.1549 48.8779H16.0012C15.9411 48.8899 15.8835 48.8899 15.8355 48.9019C15.7298 48.926 15.6217 48.974 15.528 49.0196C15.3263 49.1253 15.1606 49.2814 15.0405 49.4831C14.9805 49.5792 14.9444 49.6849 14.9108 49.7906C14.8868 49.8962 14.8628 50.0163 14.8628 50.122C14.8628 50.17 14.8628 50.2517 14.8748 50.2997C14.8748 50.3477 14.8988 50.4054 14.9108 50.4534C14.9469 50.5591 14.9829 50.6672 15.0405 50.7608C15.1582 50.9506 15.3263 51.1163 15.528 51.2243C15.7298 51.33 15.9435 51.378 16.1573 51.378C16.359 51.366 16.5728 51.306 16.7385 51.2123C16.9042 51.1187 17.0363 50.9866 17.1299 50.8569C17.226 50.7272 17.2716 50.5951 17.3077 50.4894C17.3197 50.4294 17.3317 50.3838 17.3437 50.3357C17.3557 50.2877 17.3557 50.2517 17.3557 50.2181V50.0283C17.3677 50.0043 17.3557 49.9683 17.3437 49.9226L17.3413 49.9202Z" fill="#6537B1"/>
<path d="M5.52884 5.41309V3.46505H6.97038V3.89918H6.04646V4.26931H6.91194V4.70344H6.04646V5.41309H5.52884ZM6.91314 5.41309L7.64783 3.46505H8.29624L9.03093 5.41309H8.47157L8.32964 4.9873H7.60608L7.46137 5.41309H6.91314ZM7.74523 4.56708H8.18771L8.04022 4.13017C8.0096 4.03276 7.98456 3.95763 7.96786 3.88527C7.95116 3.95763 7.92333 4.03276 7.89272 4.13295L7.74523 4.56708ZM9.19227 5.41309V3.46505H10.1273C10.5086 3.46505 10.798 3.62924 10.798 3.9938C10.798 4.26653 10.6116 4.41959 10.414 4.47525C10.6561 4.51421 10.7618 4.66727 10.7618 4.91216V5.41309H10.2414V4.95669C10.2414 4.76467 10.1579 4.69788 9.96592 4.69788H9.69876V5.41309H9.19227ZM9.69876 4.28323H10.016C10.1746 4.28323 10.2748 4.22757 10.2748 4.08286C10.2748 3.94093 10.1746 3.88805 10.016 3.88805H9.69876V4.28323ZM11.9634 5.46596C11.3706 5.46596 10.9894 5.07914 10.9894 4.43072C10.9894 3.78509 11.4291 3.41218 11.9968 3.41218C12.5033 3.41218 12.8762 3.69603 12.9179 4.20809H12.3864C12.3613 3.99102 12.2305 3.84074 11.994 3.84074C11.7296 3.84074 11.5265 4.04111 11.5265 4.43072C11.5265 4.81476 11.7101 5.03739 11.9829 5.03739C12.2138 5.03739 12.3725 4.88433 12.3975 4.63665H12.9263C12.8901 5.11531 12.5478 5.46596 11.9634 5.46596ZM12.9328 5.41309L13.6675 3.46505H14.3159L15.0506 5.41309H14.4912L14.3493 4.9873H13.6257L13.481 5.41309H12.9328ZM13.7649 4.56708H14.2074L14.0599 4.13017C14.0293 4.03276 14.0042 3.95763 13.9875 3.88527C13.9708 3.95763 13.943 4.03276 13.9124 4.13295L13.7649 4.56708ZM15.9505 5.46596C15.4273 5.46596 15.0767 5.19324 15.0544 4.73127H15.5915C15.6054 4.93721 15.7613 5.04296 15.9672 5.04296C16.1258 5.04296 16.2566 4.98174 16.2566 4.84816C16.2566 4.74797 16.1815 4.6951 16.034 4.66727L15.7028 4.60604C15.38 4.5476 15.1156 4.38341 15.1156 4.03833C15.1156 3.65707 15.4607 3.41218 15.9199 3.41218C16.4514 3.41218 16.7325 3.6849 16.7576 4.07729H16.2205C16.2093 3.93536 16.1147 3.82405 15.9032 3.82405C15.7474 3.82405 15.6305 3.88805 15.6305 4.00215C15.6305 4.10512 15.7223 4.1413 15.8809 4.16913L16.1871 4.222C16.4988 4.27209 16.7743 4.4335 16.7743 4.80363C16.7743 5.17376 16.5015 5.46596 15.9505 5.46596ZM17.4677 5.41309V3.89918H16.8527V3.46505H18.5976V3.89918H17.9853V5.41309H17.4677ZM18.802 5.41309V3.46505H20.2408V3.89918H19.3196V4.21644H20.1962V4.63944H19.3196V4.97895H20.2853V5.41309H18.802ZM20.5631 5.41309V3.46505H21.4981C21.8794 3.46505 22.1688 3.62924 22.1688 3.9938C22.1688 4.26653 21.9823 4.41959 21.7848 4.47525C22.0269 4.51421 22.1326 4.66727 22.1326 4.91216V5.41309H21.6122V4.95669C21.6122 4.76467 21.5287 4.69788 21.3367 4.69788H21.0695V5.41309H20.5631ZM21.0695 4.28323H21.3868C21.5454 4.28323 21.6456 4.22757 21.6456 4.08286C21.6456 3.94093 21.5454 3.88805 21.3868 3.88805H21.0695V4.28323ZM22.9954 5.41309V3.46505H23.8748C24.2783 3.46505 24.6011 3.60698 24.6011 3.96597C24.6011 4.18861 24.4592 4.33888 24.2449 4.39454C24.4787 4.43907 24.6596 4.59213 24.6596 4.84259C24.6596 5.22663 24.3451 5.41309 23.8414 5.41309H22.9954ZM23.4935 4.99843H23.8581C24.0473 4.99843 24.1336 4.93164 24.1336 4.80363C24.1336 4.67005 24.0473 4.61161 23.8581 4.61161H23.4935V4.99843ZM23.4935 4.22757H23.8386C24.0028 4.22757 24.0807 4.16634 24.0807 4.04668C24.0807 3.93536 24.0028 3.8797 23.8386 3.8797H23.4935V4.22757ZM25.746 5.46596C25.195 5.46596 24.9 5.15984 24.9 4.62831V3.46505H25.4176V4.55038C25.4176 4.87042 25.5123 5.02626 25.7488 5.02626C25.9854 5.02626 26.0828 4.86764 26.0828 4.55038V3.46505H26.6004V4.62831C26.6004 5.15984 26.2915 5.46596 25.746 5.46596ZM26.9306 5.41309V3.46505H27.4482V5.41309H26.9306ZM27.7975 5.41309V3.46505H28.3151V4.97895H29.2168V5.41309H27.7975ZM29.42 5.41309V3.46505H30.1769C30.8532 3.46505 31.2456 3.79065 31.2456 4.44185C31.2456 5.01791 30.881 5.41309 30.1714 5.41309H29.42ZM29.9376 4.97895H30.1296C30.4608 4.97895 30.7057 4.83424 30.7057 4.44185C30.7057 4.09677 30.5276 3.89918 30.1435 3.89918H29.9376V4.97895ZM31.5072 5.41309V3.46505H32.9459V3.89918H32.0248V4.21644H32.9014V4.63944H32.0248V4.97895H32.9905V5.41309H31.5072ZM33.2682 5.41309V3.46505H34.2033C34.5845 3.46505 34.874 3.62924 34.874 3.9938C34.874 4.26653 34.6875 4.41959 34.4899 4.47525C34.732 4.51421 34.8378 4.66727 34.8378 4.91216V5.41309H34.3174V4.95669C34.3174 4.76467 34.2339 4.69788 34.0419 4.69788H33.7747V5.41309H33.2682ZM33.7747 4.28323H34.092C34.2506 4.28323 34.3508 4.22757 34.3508 4.08286C34.3508 3.94093 34.2506 3.88805 34.092 3.88805H33.7747V4.28323ZM35.9364 5.46596C35.4132 5.46596 35.0625 5.19324 35.0403 4.73127H35.5774C35.5913 4.93721 35.7471 5.04296 35.9531 5.04296C36.1117 5.04296 36.2425 4.98174 36.2425 4.84816C36.2425 4.74797 36.1673 4.6951 36.0198 4.66727L35.6887 4.60604C35.3659 4.5476 35.1015 4.38341 35.1015 4.03833C35.1015 3.65707 35.4466 3.41218 35.9057 3.41218C36.4373 3.41218 36.7184 3.6849 36.7434 4.07729H36.2063C36.1952 3.93536 36.1005 3.82405 35.889 3.82405C35.7332 3.82405 35.6163 3.88805 35.6163 4.00215C35.6163 4.10512 35.7082 4.1413 35.8668 4.16913L36.1729 4.222C36.4846 4.27209 36.7601 4.4335 36.7601 4.80363C36.7601 5.17376 36.4874 5.46596 35.9364 5.46596ZM37.5785 5.41309V3.46505H38.0961V5.41309H37.5785ZM38.4454 5.41309V3.46505H39.1829L39.7923 4.70901C39.7812 4.61717 39.7784 4.5309 39.7784 4.42794L39.7756 3.46505H40.2793V5.41309H39.6421L38.9324 3.97432C38.9436 4.06894 38.9436 4.1413 38.9436 4.25261L38.9491 5.41309H38.4454ZM40.6304 5.41309V3.46505H41.3874C42.0636 3.46505 42.456 3.79065 42.456 4.44185C42.456 5.01791 42.0915 5.41309 41.3818 5.41309H40.6304ZM41.148 4.97895H41.3401C41.6712 4.97895 41.9161 4.83424 41.9161 4.44185C41.9161 4.09677 41.738 3.89918 41.354 3.89918H41.148V4.97895ZM42.7176 5.41309V3.46505H43.2352V5.41309H42.7176ZM43.3953 5.41309L44.13 3.46505H44.7784L45.5131 5.41309H44.9537L44.8118 4.9873H44.0883L43.9435 5.41309H43.3953ZM44.2274 4.56708H44.6699L44.5224 4.13017C44.4918 4.03276 44.4667 3.95763 44.45 3.88527C44.4333 3.95763 44.4055 4.03276 44.3749 4.13295L44.2274 4.56708Z" fill="#9259EF"/>
</g>
<path d="M40.836 42.0137C40.8414 41.8504 40.9311 41.6818 41.2288 41.5562L41.4639 41.4576C41.6468 41.3804 41.7975 41.2943 41.7975 41.1149C41.7975 40.9445 41.6432 40.8386 41.4011 40.8386C41.1356 40.8386 40.9813 40.9696 40.9813 41.1867V41.21H40.8521V41.1867C40.8521 40.9158 41.0584 40.7328 41.4011 40.7328C41.715 40.7328 41.9285 40.8799 41.9285 41.1149C41.9285 41.3535 41.7294 41.4647 41.5248 41.5526L41.3114 41.6423C41.0925 41.7338 41.0028 41.8415 40.9885 41.9024H41.9554V42.0137H40.836ZM42.7759 42.0388C42.4224 42.0388 42.1731 41.7787 42.1731 41.3876C42.1731 40.9983 42.426 40.7328 42.7759 40.7328C43.1257 40.7328 43.3768 40.9983 43.3768 41.3876C43.3768 41.7787 43.1293 42.0388 42.7759 42.0388ZM42.3058 41.3858C42.3058 41.732 42.4924 41.9329 42.7759 41.9329C43.0611 41.9329 43.2441 41.7284 43.2441 41.3858C43.2441 41.0467 43.0611 40.8386 42.7759 40.8386C42.4924 40.8386 42.3058 41.0432 42.3058 41.3858ZM43.5917 42.0137C43.5971 41.8504 43.6868 41.6818 43.9846 41.5562L44.2196 41.4576C44.4026 41.3804 44.5533 41.2943 44.5533 41.1149C44.5533 40.9445 44.399 40.8386 44.1568 40.8386C43.8913 40.8386 43.737 40.9696 43.737 41.1867V41.21H43.6078V41.1867C43.6078 40.9158 43.8141 40.7328 44.1568 40.7328C44.4707 40.7328 44.6842 40.8799 44.6842 41.1149C44.6842 41.3535 44.4851 41.4647 44.2806 41.5526L44.0671 41.6423C43.8482 41.7338 43.7585 41.8415 43.7442 41.9024H44.7111V42.0137H43.5917ZM45.6602 42.0137V41.6764H44.8404V41.5526L45.6369 40.7579H45.7786V41.5724H46.1033V41.6764H45.7786V42.0137H45.6602ZM44.966 41.5724H45.6602V40.8781C45.6172 40.923 45.5723 40.9678 45.5275 41.0109L45.1077 41.4288C45.0592 41.4755 45.0144 41.5239 44.966 41.5724Z" fill="white"/>
<path d="M5.7035 42.0137V40.7579H6.76192V40.8673H5.83087V41.3194H6.72425V41.4271H5.83087V41.9042H6.79242V42.0137H5.7035ZM7.63661 42.0388C7.17019 42.0388 6.99079 41.8271 6.97644 41.5993H7.11457C7.12534 41.7446 7.26168 41.9276 7.63482 41.9276C7.9667 41.9276 8.13891 41.8235 8.13891 41.6621C8.13891 41.5347 8.04384 41.4737 7.79807 41.4432L7.46619 41.4037C7.16301 41.3679 7.03205 41.2602 7.03205 41.0844C7.03205 40.8978 7.23118 40.7328 7.61508 40.7328C8.00257 40.7328 8.21247 40.9068 8.2322 41.1203H8.09048C8.07433 40.9678 7.90391 40.844 7.61508 40.844C7.3137 40.844 7.1648 40.9517 7.1648 41.079C7.1648 41.1956 7.24912 41.2566 7.50027 41.2853L7.85009 41.3266C8.14609 41.3607 8.27884 41.4845 8.27884 41.6567C8.27884 41.8773 8.06536 42.0388 7.63661 42.0388ZM8.95343 42.0137V40.8691H8.3399V40.7579H9.69433V40.8691H9.0808V42.0137H8.95343ZM9.9133 42.0137V40.7579H10.5089C11.004 40.7579 11.2964 40.9822 11.2964 41.3858C11.2964 41.7894 11.0202 42.0137 10.5394 42.0137H9.9133ZM10.0407 41.9024H10.4963C10.9323 41.9024 11.1601 41.7248 11.1601 41.3858C11.1601 41.0467 10.9287 40.8691 10.491 40.8691H10.0407V41.9024Z" fill="white"/>
<path d="M1.2944 47.595V2.47161C1.2944 1.37569 2.18282 0.487266 3.27874 0.487266H48.7357C49.8316 0.487266 50.72 1.37568 50.72 2.4716V47.595C50.72 48.2728 50.3741 48.9037 49.8026 49.2681L27.0741 63.7614C26.4234 64.1764 25.5911 64.1764 24.9403 63.7614L2.21183 49.2681C1.64035 48.9037 1.2944 48.2728 1.2944 47.595Z" stroke="white" stroke-width="0.605392"/>
</svg>
