<svg width="86" height="98" viewBox="0 0 86 98" fill="none" xmlns="http://www.w3.org/2000/svg">
<path d="M16 26C16 11.6406 27.6406 0 42 0C56.3594 0 68 11.6406 68 26V43H16V26Z" fill="#4D2496"/>
<path d="M27 26C27 17.7157 33.7157 11 42 11C50.2843 11 57 17.7157 57 26V41H27V26Z" fill="white"/>
<rect y="39.2109" width="86" height="58" rx="4" fill="#4D2496"/>
<path d="M22 54.9014C22 53.7968 22.8954 52.9014 24 52.9014H62C63.1046 52.9014 64 53.7968 64 54.9014V67.9014H22V54.9014Z" fill="url(#paint0_linear_257_158)"/>
<path d="M9 79.8027C9 78.6982 9.89543 77.8027 11 77.8027H75C76.1046 77.8027 77 78.6982 77 79.8027V97.8027H9V79.8027Z" fill="url(#paint1_linear_257_158)"/>
<defs>
<linearGradient id="paint0_linear_257_158" x1="43" y1="47.9669" x2="43" y2="67.9014" gradientUnits="userSpaceOnUse">
<stop stop-color="#AB7BFF"/>
<stop offset="1" stop-color="#664A99" stop-opacity="0"/>
</linearGradient>
<linearGradient id="paint1_linear_257_158" x1="43" y1="71.2235" x2="43" y2="97.8027" gradientUnits="userSpaceOnUse">
<stop stop-color="#AB7BFF"/>
<stop offset="1" stop-color="#664A99" stop-opacity="0"/>
</linearGradient>
</defs>
</svg>
